# xmcd
#
# Track frame offsets:
#	150
#	18825
#	33675
#	52050
#	66378
#	83403
#	97503
#	115655
#	131930
#	149555
#
# Disc length: 2226 seconds
#
# Revision: 2
# Processed by: cddbd v1.5.2PL0 Copyright (c) Steve Scherf et al.
# Submitted via: EasyCDDAExtractor 12.0.0.1
#
DISCID=8508b00a
DTITLE=Daniela Romo - La Cita - CD 2
DYEAR=1994
DGENRE=Latin
TTITLE0=Que Sabes Tu
TTITLE1=Mulata
TTITLE2=Si Dios Me Quita La Vida
TTITLE3=Dame Un Poco De Ti
TTITLE4=Si Nos Dejan
TTITLE5=Toda Una Vida
TTITLE6=Que Has Hecho De Mi
TTITLE7=La Corriente
TTITLE8=Franqueza
TTITLE9=Cheque En Blanco
EXTD=
EXTT0=
EXTT1=
EXTT2=
EXTT3=
EXTT4=
EXTT5=
EXTT6=
EXTT7=
EXTT8=
EXTT9=
PLAYORDER=
